<svg width="40" height="40" viewBox="0 0 40 40" fill="none" xmlns="http://www.w3.org/2000/svg">
<path fill-rule="evenodd" clip-rule="evenodd" d="M33.3333 21.6667V30C33.3333 31.3261 32.8066 32.5979 31.8689 33.5356C30.9312 34.4733 29.6594 35 28.3333 35H21.6667V21.6667H33.3333ZM18.3333 21.6667V35H11.6667C10.3406 35 9.06882 34.4733 8.13114 33.5356C7.19345 32.5979 6.66667 31.3261 6.66667 30V21.6667H18.3333ZM15 3.33338C15.946 3.33226 16.8813 3.53297 17.7435 3.92212C18.6058 4.31128 19.375 4.87991 20 5.59005C20.625 4.87991 21.3942 4.31128 22.2565 3.92212C23.1187 3.53297 24.054 3.33226 25 3.33338H25.8333C26.4964 3.33338 27.1323 3.59677 27.6011 4.06561C28.0699 4.53445 28.3333 5.17034 28.3333 5.83338V6.66671C28.3333 7.88171 28.0083 9.02005 27.4417 10H31.6667C32.5507 10 33.3986 10.3512 34.0237 10.9764C34.6488 11.6015 35 12.4493 35 13.3334V16.6667C35 17.2734 34.8383 17.8434 34.5533 18.3334H21.6667V13.3334C21.6667 12.8914 21.4911 12.4674 21.1785 12.1549C20.866 11.8423 20.442 11.6667 20 11.6667C19.558 11.6667 19.1341 11.8423 18.8215 12.1549C18.5089 12.4674 18.3333 12.8914 18.3333 13.3334V18.3334H5.44667C5.15334 17.827 4.99924 17.2519 5 16.6667V13.3334C5 12.4493 5.35119 11.6015 5.97631 10.9764C6.60143 10.3512 7.44928 10 8.33334 10H12.5583C11.9724 8.98699 11.6648 7.83701 11.6667 6.66671V5.83338C11.6667 5.17034 11.9301 4.53445 12.3989 4.06561C12.8677 3.59677 13.5036 3.33338 14.1667 3.33338H15ZM15 6.66671C15 7.55077 15.3512 8.39861 15.9763 9.02373C16.6014 9.64886 17.4493 10 18.3333 10C18.3333 9.11599 17.9821 8.26814 17.357 7.64302C16.7319 7.0179 15.8841 6.66671 15 6.66671ZM25 6.66671C24.1159 6.66671 23.2681 7.0179 22.643 7.64302C22.0179 8.26814 21.6667 9.11599 21.6667 10C22.5507 10 23.3986 9.64886 24.0237 9.02373C24.6488 8.39861 25 7.55077 25 6.66671Z" fill="#36465E"/>
</svg>
