<svg width="41" height="45" viewBox="0 0 41 45" fill="none" xmlns="http://www.w3.org/2000/svg">
<path d="M34.8889 14.3333H6.11111C3.84061 14.3333 2 16.1739 2 18.4444V39C2 41.2705 3.84061 43.1111 6.11111 43.1111H34.8889C37.1594 43.1111 39 41.2705 39 39V18.4444C39 16.1739 37.1594 14.3333 34.8889 14.3333Z" stroke="black" stroke-width="3" stroke-linecap="round" stroke-linejoin="round"/>
<path d="M20.5 8.16667C20.5 4.76092 17.7392 2 14.3333 2C10.9276 2 8.16666 4.76092 8.16666 8.16667C8.16666 11.5724 10.9276 14.3333 14.3333 14.3333" stroke="black" stroke-width="3" stroke-linecap="round" stroke-linejoin="round"/>
<path d="M26.6667 14.3333C30.0725 14.3333 32.8333 11.5724 32.8333 8.16667C32.8333 4.76092 30.0725 2 26.6667 2C23.2608 2 20.5 4.76092 20.5 8.16667" stroke="black" stroke-width="3" stroke-linecap="round" stroke-linejoin="round"/>
<path d="M20.5 8.16672V43.1112" stroke="black" stroke-width="3" stroke-linecap="round" stroke-linejoin="round"/>
<path d="M39 28.7221H2" stroke="black" stroke-width="3" stroke-linecap="round" stroke-linejoin="round"/>
</svg>
