<svg width="46" height="44" viewBox="0 0 46 44" fill="none" xmlns="http://www.w3.org/2000/svg">
<path d="M4.69245 9.59427C5.54866 5.74133 8.96602 3 12.913 3H33.0869C37.0338 3 40.4513 5.74133 41.3075 9.59427L41.6168 10.9867C43.2212 18.2057 43.2212 25.6891 41.6168 32.908L41.3075 34.3004C40.4513 38.1535 37.0338 40.8947 33.0869 40.8947H12.913C8.96602 40.8947 5.54866 38.1535 4.69245 34.3004L4.38301 32.908C2.77878 25.6891 2.77878 18.2057 4.38301 10.9867L4.69245 9.59427Z" stroke="black" stroke-width="5" stroke-linecap="round" stroke-linejoin="round"/>
<path d="M3 24.0527H16.3428C16.3428 26.158 18.3912 30.3685 23.512 30.3685C28.6331 30.3685 30.6813 26.158 30.6813 24.0527H43" stroke="black" stroke-width="5" stroke-linejoin="round"/>
</svg>
