<svg width="34" height="30" viewBox="0 0 34 30" fill="none" xmlns="http://www.w3.org/2000/svg">
<path fill-rule="evenodd" clip-rule="evenodd" d="M3.875 0C2.14833 0 0.75 1.4 0.75 3.125V25C0.75 26.3261 1.27678 27.5979 2.21447 28.5355C3.15215 29.4732 4.42392 30 5.75 30H30.75C29.4239 30 28.1521 29.4732 27.2145 28.5355C26.2768 27.5979 25.75 26.3261 25.75 25V3.125C25.75 1.39833 24.35 0 22.625 0H3.875ZM17 11.25C16.6685 11.25 16.3505 11.3817 16.1161 11.6161C15.8817 11.8505 15.75 12.1685 15.75 12.5C15.75 12.8315 15.8817 13.1495 16.1161 13.3839C16.3505 13.6183 16.6685 13.75 17 13.75H19.5C19.8315 13.75 20.1495 13.6183 20.3839 13.3839C20.6183 13.1495 20.75 12.8315 20.75 12.5C20.75 12.1685 20.6183 11.8505 20.3839 11.6161C20.1495 11.3817 19.8315 11.25 19.5 11.25H17ZM15.75 7.5C15.75 7.16848 15.8817 6.85054 16.1161 6.61612C16.3505 6.3817 16.6685 6.25 17 6.25H19.5C19.8315 6.25 20.1495 6.3817 20.3839 6.61612C20.6183 6.85054 20.75 7.16848 20.75 7.5C20.75 7.83152 20.6183 8.14946 20.3839 8.38388C20.1495 8.6183 19.8315 8.75 19.5 8.75H17C16.6685 8.75 16.3505 8.6183 16.1161 8.38388C15.8817 8.14946 15.75 7.83152 15.75 7.5ZM7 16.25C6.66848 16.25 6.35054 16.3817 6.11612 16.6161C5.8817 16.8505 5.75 17.1685 5.75 17.5C5.75 17.8315 5.8817 18.1495 6.11612 18.3839C6.35054 18.6183 6.66848 18.75 7 18.75H19.5C19.8315 18.75 20.1495 18.6183 20.3839 18.3839C20.6183 18.1495 20.75 17.8315 20.75 17.5C20.75 17.1685 20.6183 16.8505 20.3839 16.6161C20.1495 16.3817 19.8315 16.25 19.5 16.25H7ZM5.75 22.5C5.75 22.1685 5.8817 21.8505 6.11612 21.6161C6.35054 21.3817 6.66848 21.25 7 21.25H19.5C19.8315 21.25 20.1495 21.3817 20.3839 21.6161C20.6183 21.8505 20.75 22.1685 20.75 22.5C20.75 22.8315 20.6183 23.1495 20.3839 23.3839C20.1495 23.6183 19.8315 23.75 19.5 23.75H7C6.66848 23.75 6.35054 23.6183 6.11612 23.3839C5.8817 23.1495 5.75 22.8315 5.75 22.5ZM7 6.25C6.66848 6.25 6.35054 6.3817 6.11612 6.61612C5.8817 6.85054 5.75 7.16848 5.75 7.5V12.5C5.75 13.19 6.31 13.75 7 13.75H12C12.3315 13.75 12.6495 13.6183 12.8839 13.3839C13.1183 13.1495 13.25 12.8315 13.25 12.5V7.5C13.25 7.16848 13.1183 6.85054 12.8839 6.61612C12.6495 6.3817 12.3315 6.25 12 6.25H7Z" fill="#36465E"/>
<path d="M28.25 6.25H31.375C32.41 6.25 33.25 7.09 33.25 8.125V25C33.25 25.663 32.9866 26.2989 32.5178 26.7678C32.0489 27.2366 31.413 27.5 30.75 27.5C30.087 27.5 29.4511 27.2366 28.9822 26.7678C28.5134 26.2989 28.25 25.663 28.25 25V6.25Z" fill="#36465E"/>
</svg>
